<svg width="58" height="58" viewBox="0 0 58 58" fill="none" xmlns="http://www.w3.org/2000/svg">
<path d="M35.3 56.0943C33.2751 56.5599 31.1663 56.8059 29 56.8059C13.536 56.8059 0.999999 44.2699 0.999999 28.8059C0.999998 13.3419 13.536 0.805904 29 0.805903C44.464 0.805902 57 13.3419 57 28.8059C57 35.031 54.9686 40.7815 51.5324 45.4309" stroke="#BBB5A7" stroke-linecap="round"/>
<path d="M44.575 51.3811C43.6416 52.1394 41.425 53.4811 40.2 54.0061" stroke="#BBB5A7" stroke-linecap="round"/>
<circle cx="48.0502" cy="48.8789" r="0.522831" transform="rotate(-90 48.0502 48.8789)" fill="#F0E8D6" stroke="#BBB5A7"/>
<g clip-path="url(#clip0_60_489)">
<path fill-rule="evenodd" clip-rule="evenodd" d="M37.4706 17.8058C39.4198 17.8058 41 19.4915 41 21.5709V32.615C41 34.6943 39.4198 36.38 37.4706 36.38H27.4424L23.5781 41.1892C22.6012 42.405 20.7335 41.707 20.6815 40.1067L20.5604 36.38H20.5294C18.5802 36.38 17 34.6943 17 32.615V21.5709C17 19.4915 18.5802 17.8058 20.5294 17.8058H37.4706ZM21.1213 34.885C21.0819 34.8778 21.0414 34.874 21 34.874H20.5294C19.3599 34.874 18.4118 33.8626 18.4118 32.615V21.5709C18.4118 20.3233 19.3599 19.3119 20.5294 19.3119H37.4706C38.6401 19.3119 39.5882 20.3233 39.5882 21.5709V32.615C39.5882 33.8626 38.6401 34.874 37.4706 34.874H27.1176C27.0009 34.874 26.8908 34.9042 26.7938 34.9577C26.7342 34.9905 26.6783 35.0328 26.6282 35.0844C26.6096 35.1035 26.5919 35.1237 26.5754 35.1449L22.5062 40.2091C22.3667 40.3828 22.0999 40.2831 22.0924 40.0545L21.9477 35.6009C21.9342 35.1853 21.6074 34.8601 21.2178 34.8745C21.185 34.8757 21.1528 34.8793 21.1213 34.885Z" fill="#275B50"/>
</g>
<defs>
<clipPath id="clip0_60_489">
<rect width="24" height="24" fill="white" transform="translate(17 17.8058)"/>
</clipPath>
</defs>
</svg>
