<svg width="17" height="18" viewBox="0 0 17 18" fill="none" xmlns="http://www.w3.org/2000/svg">
<g clip-path="url(#clip0_60_395)">
<path fill-rule="evenodd" clip-rule="evenodd" d="M0.361896 8.18904C-0.120469 8.6842 -0.120469 9.48702 0.361896 9.98218L4.85367 14.5931C5.06039 14.8053 5.39557 14.8053 5.6023 14.5931C5.80902 14.3809 5.80902 14.0368 5.6023 13.8246L1.46497 9.57754L16.4707 9.57753C16.763 9.57753 17 9.33424 17 9.03413C17 8.73401 16.763 8.49072 16.4707 8.49072L1.56526 8.49073L5.6023 4.34659C5.80902 4.13438 5.80902 3.79032 5.6023 3.5781C5.39557 3.36589 5.06039 3.36589 4.85367 3.5781L0.361896 8.18904Z" fill="#F0E8D6"/>
</g>
<defs>
<clipPath id="clip0_60_395">
<rect width="17" height="17" fill="white" transform="translate(0 0.585693)"/>
</clipPath>
</defs>
</svg>
