<svg width="17" height="18" viewBox="0 0 17 18" fill="none" xmlns="http://www.w3.org/2000/svg">
<path fill-rule="evenodd" clip-rule="evenodd" d="M16.6382 9.98222C17.1205 9.48706 17.1205 8.68424 16.6382 8.18908L12.1464 3.57815C11.9397 3.36593 11.6045 3.36593 11.3978 3.57815C11.191 3.79036 11.191 4.13442 11.3978 4.34664L15.5351 8.59373L0.529389 8.59373C0.237032 8.59373 2.91274e-05 8.83702 2.91011e-05 9.13714C2.90749e-05 9.43725 0.237032 9.68054 0.529389 9.68054L15.4348 9.68053L11.3978 13.8247C11.191 14.0369 11.191 14.3809 11.3978 14.5932C11.6045 14.8054 11.9397 14.8054 12.1464 14.5932L16.6382 9.98222Z" fill="#F0E8D6"/>
</svg>
