<svg width="32" height="32" viewBox="0 0 32 32" fill="none" xmlns="http://www.w3.org/2000/svg">
<g clip-path="url(#clip0_24_66)">
<rect width="32" height="32" fill="#DDDCF0"/>
<path d="M25.9993 20.9331C25.9993 19.7711 26.3922 18.7835 27.1779 17.9701C28.0028 17.1568 28.9849 16.7501 30.1242 16.7501C31.3027 16.7501 32.2848 17.1568 33.0705 17.9701C33.8562 18.7835 34.249 19.7711 34.249 20.9331C34.249 22.0563 33.8562 23.0245 33.0705 23.8379C32.2848 24.6125 31.3027 24.9998 30.1242 24.9998C28.9849 24.9998 28.0028 24.6125 27.1779 23.8379C26.3922 23.0245 25.9993 22.0563 25.9993 20.9331Z" fill="#275B50"/>
<path d="M7.75 7.84207V8.09207H8C8.3855 8.09207 8.7048 8.17399 8.96745 8.3276C9.22967 8.48096 9.44978 8.71416 9.62452 9.03932L9.62448 9.03934L9.62678 9.04343C10.0136 9.73191 10.2009 10.4006 10.2009 11.0525V21.289C10.2009 21.9594 10.013 22.6369 9.62677 23.3243L9.62576 23.3262C9.45171 23.6421 9.23218 23.8693 8.96977 24.0191C8.70668 24.1692 8.38653 24.2494 8 24.2494H7.75V24.4994V24.9993V25.2493H8H16.8284H17.0784V24.9993V24.4994V24.2494H16.8284C16.0543 24.2494 15.4651 23.9257 15.0357 23.2588C14.5793 22.5499 14.364 21.8947 14.364 21.289V16.8787C14.3662 16.8759 14.3683 16.8731 14.3705 16.8704C14.4026 16.8292 14.4453 16.773 14.4983 16.7024C14.5084 16.689 14.5183 16.6758 14.528 16.6627L18.7787 23.3182L18.7786 23.3182L18.7802 23.3206C19.0438 23.7232 19.1874 24.2756 19.1874 24.9993V25.2493H19.4374H25.9993H26.2493V24.9993V24.4994V24.286L26.0386 24.2525C24.9386 24.0774 23.7606 23.0899 22.521 21.155C22.5208 21.1547 22.5206 21.1544 22.5204 21.1541L17.3463 12.9136C18.0761 12.0257 18.7234 11.3637 19.2886 10.9202C19.8889 10.4493 20.3651 10.2499 20.7287 10.2499C21.0219 10.2499 21.3648 10.3527 21.7624 10.5843C22.2195 10.8506 22.7019 10.9867 23.2059 10.9867V10.9868L23.2142 10.9866C23.8083 10.9668 24.3052 10.7356 24.6863 10.295L24.6864 10.2951L24.6917 10.2885C25.1941 9.66645 25.2769 8.93803 24.9672 8.1458L24.9673 8.14579L24.9661 8.14298C24.7813 7.68644 24.4932 7.33218 24.099 7.09499C23.7076 6.85946 23.2293 6.75 22.6788 6.75C22.0121 6.75 21.3619 6.95012 20.7315 7.33841C20.1174 7.69938 19.6127 8.10099 19.223 8.5457C18.8487 8.97283 18.3793 9.55678 17.8155 10.2956L17.815 10.2962C17.322 10.9468 16.6448 11.8601 15.7839 13.0356C15.2019 13.8183 14.7287 14.4523 14.364 14.9377V11.0525C14.364 10.4468 14.5793 9.79154 15.0357 9.08263C15.4651 8.41573 16.0543 8.09207 16.8284 8.09207H17.0784V7.84207V7.36841V7.11841H16.8284H8H7.75V7.36841V7.84207Z" fill="#275B50" stroke="#275B50" stroke-width="0.5"/>
</g>
<defs>
<clipPath id="clip0_24_66">
<rect width="32" height="32" fill="white"/>
</clipPath>
</defs>
</svg>
