<svg width="58" height="58" viewBox="0 0 58 58" fill="none" xmlns="http://www.w3.org/2000/svg">
<path d="M1.71159 35.1059C1.246 33.081 1 30.9722 1 28.8059C1 13.3419 13.536 0.805908 29 0.805908C44.464 0.805908 57 13.3419 57 28.8059C57 44.2699 44.464 56.8059 29 56.8059C22.7749 56.8059 17.0244 54.7745 12.375 51.3384" stroke="#BBB5A7" stroke-linecap="round"/>
<path d="M6.4248 44.3809C5.66647 43.4475 4.3248 41.2309 3.7998 40.0059" stroke="#BBB5A7" stroke-linecap="round"/>
<circle cx="8.92701" cy="47.8561" r="0.522831" fill="#F0E8D6" stroke="#BBB5A7"/>
<path fill-rule="evenodd" clip-rule="evenodd" d="M20.5385 19.8298C20.5385 18.5607 21.5717 17.5319 22.8462 17.5319H33.5641C33.9889 17.5319 34.3333 17.189 34.3333 16.766C34.3333 16.3429 33.9889 16 33.5641 16H22.8462C20.722 16 19 17.7147 19 19.8298V36.1702C19 38.2853 20.722 40 22.8462 40H35.1538C37.278 40 39 38.2853 39 36.1702V26.4681C39 26.0451 38.6556 25.7021 38.2308 25.7021C37.8059 25.7021 37.4615 26.0451 37.4615 26.4681V36.1702C37.4615 37.4393 36.4283 38.4681 35.1538 38.4681H22.8462C21.5717 38.4681 20.5385 37.4393 20.5385 36.1702V19.8298ZM30 22.75C30 23.1642 29.6642 23.5 29.25 23.5H23.75C23.3358 23.5 23 23.1642 23 22.75C23 22.3358 23.3358 22 23.75 22H29.25C29.6642 22 30 22.3358 30 22.75ZM33.75 29C34.1642 29 34.5 28.6642 34.5 28.25C34.5 27.8358 34.1642 27.5 33.75 27.5H23.75C23.3358 27.5 23 27.8358 23 28.25C23 28.6642 23.3358 29 23.75 29H33.75ZM27.5 33.75C27.5 34.1642 27.1642 34.5 26.75 34.5H23.75C23.3358 34.5 23 34.1642 23 33.75C23 33.3358 23.3358 33 23.75 33H26.75C27.1642 33 27.5 33.3358 27.5 33.75ZM32.5 33.75C32.5 34.1642 32.1642 34.5 31.75 34.5H29.75C29.3358 34.5 29 34.1642 29 33.75C29 33.3358 29.3358 33 29.75 33H31.75C32.1642 33 32.5 33.3358 32.5 33.75Z" fill="#275B50"/>
</svg>
