<svg width="58" height="58" viewBox="0 0 58 58" fill="none" xmlns="http://www.w3.org/2000/svg">
<path d="M22.7 1.5175C24.7249 1.05191 26.8337 0.805907 29 0.805907C44.464 0.805908 57 13.3419 57 28.8059C57 44.2699 44.464 56.8059 29 56.8059C13.536 56.8059 0.999994 44.2699 0.999995 28.8059C0.999995 22.5809 3.03143 16.8303 6.46756 12.1809" stroke="#BBB5A7" stroke-linecap="round"/>
<path d="M13.425 6.23071C14.3584 5.47238 16.575 4.13071 17.8 3.60571" stroke="#BBB5A7" stroke-linecap="round"/>
<circle cx="9.94983" cy="8.73291" r="0.522831" transform="rotate(90 9.94983 8.73291)" fill="#F0E8D6" stroke="#BBB5A7"/>
<g clip-path="url(#clip0_46_707)">
<path fill-rule="evenodd" clip-rule="evenodd" d="M23 22.7129C23 18.8983 25.6863 15.8059 29 15.8059C32.3137 15.8059 35 18.8983 35 22.7129V25.8059H36.1702C38.2853 25.8059 40 27.547 40 29.6948V35.917C40 38.0648 38.2853 39.8059 36.1702 39.8059H35.1489C34.7259 39.8059 34.383 39.4577 34.383 39.0281C34.383 38.5986 34.7259 38.2504 35.1489 38.2504H36.1702C37.4393 38.2504 38.4681 37.2057 38.4681 35.917V29.6948C38.4681 28.4061 37.4393 27.3615 36.1702 27.3615H21.8298C20.5607 27.3615 19.5319 28.4061 19.5319 29.6948V35.917C19.5319 37.2057 20.5607 38.2504 21.8298 38.2504H27.4894C27.9124 38.2504 28.2553 38.5986 28.2553 39.0281C28.2553 39.4577 27.9124 39.8059 27.4894 39.8059H21.8298C19.7147 39.8059 18 38.0648 18 35.917V29.6948C18 27.547 19.7147 25.8059 21.8298 25.8059H23V22.7129ZM24.3333 25.8059H33.6667V22.7129C33.6667 19.746 31.5773 17.3408 29 17.3408C26.4227 17.3408 24.3333 19.746 24.3333 22.7129V25.8059ZM28 31.8059C28 31.2536 28.4477 30.8059 29 30.8059C29.5523 30.8059 30 31.2536 30 31.8059V33.8059C30 34.3582 29.5523 34.8059 29 34.8059C28.4477 34.8059 28 34.3582 28 33.8059V31.8059Z" fill="#275B50"/>
</g>
<defs>
<clipPath id="clip0_46_707">
<rect width="24" height="24" fill="white" transform="translate(17 15.8059)"/>
</clipPath>
</defs>
</svg>
