<svg width="58" height="58" viewBox="0 0 58 58" fill="none" xmlns="http://www.w3.org/2000/svg">
<path d="M56.2884 22.5059C56.754 24.5308 57 26.6396 57 28.8059C57 44.2699 44.464 56.8059 29 56.8059C13.536 56.8059 0.999997 44.2699 0.999999 28.8059C1 13.3419 13.536 0.805901 29 0.805902C35.2251 0.805902 40.9756 2.83734 45.625 6.27346" stroke="#BBB5A7" stroke-linecap="round"/>
<path d="M46.7749 7.91881C47.749 8.62407 49.6186 10.418 50.4428 11.4653" stroke="#BBB5A7" stroke-linecap="round"/>
<circle cx="43.4585" cy="5.20961" r="0.522831" transform="rotate(165 43.4585 5.20961)" fill="#F0E8D6" stroke="#BBB5A7"/>
<path fill-rule="evenodd" clip-rule="evenodd" d="M30.3269 20.5106C30.3269 19.3473 31.274 18.4043 32.4423 18.4043H42.267C42.6565 18.4043 42.9722 18.0899 42.9722 17.7021C42.9722 17.3144 42.6565 17 42.267 17H32.4423C30.4951 17 28.9166 18.5718 28.9166 20.5106V35.4894C28.9166 37.4282 30.4951 39 32.4423 39H43.7243C45.6715 39 47.2499 37.4282 47.2499 35.4894V26.5957C47.2499 26.208 46.9342 25.8936 46.5448 25.8936C46.1554 25.8936 45.8397 26.208 45.8397 26.5957V35.4894C45.8397 36.6527 44.8926 37.5957 43.7243 37.5957H32.4423C31.274 37.5957 30.3269 36.6527 30.3269 35.4894V20.5106ZM38.9999 23.1875C38.9999 23.5672 38.6921 23.875 38.3124 23.875H33.2707C32.8911 23.875 32.5832 23.5672 32.5832 23.1875C32.5832 22.8078 32.8911 22.5 33.2707 22.5H38.3124C38.6921 22.5 38.9999 22.8078 38.9999 23.1875ZM42.4373 28.9168C42.817 28.9168 43.1248 28.609 43.1248 28.2293C43.1248 27.8496 42.817 27.5418 42.4373 27.5418H33.2706C32.8909 27.5418 32.5831 27.8496 32.5831 28.2293C32.5831 28.609 32.8909 28.9168 33.2706 28.9168H42.4373ZM36.7081 33.2707C36.7081 33.6504 36.4003 33.9582 36.0206 33.9582H33.2706C32.8909 33.9582 32.5831 33.6504 32.5831 33.2707C32.5831 32.891 32.8909 32.5832 33.2706 32.5832H36.0206C36.4003 32.5832 36.7081 32.891 36.7081 33.2707ZM41.2916 33.2707C41.2916 33.6504 40.9838 33.9582 40.6041 33.9582H38.7707C38.391 33.9582 38.0832 33.6504 38.0832 33.2707C38.0832 32.891 38.391 32.5832 38.7707 32.5832H40.6041C40.9838 32.5832 41.2916 32.891 41.2916 33.2707Z" fill="#275B50"/>
<path fill-rule="evenodd" clip-rule="evenodd" d="M28.4231 35.4894C28.4231 36.6527 27.476 37.5957 26.3077 37.5957H12.8162C12.4268 37.5957 12.1111 37.9101 12.1111 38.2979C12.1111 38.6856 12.4268 39 12.8162 39H26.3077C28.2548 39 29.8333 37.4282 29.8333 35.4894V20.5106C29.8333 18.5718 28.2548 17 26.3077 17H15.0256C13.0785 17 11.5 18.5718 11.5 20.5106V33.9876C11.5 34.3754 11.8157 34.6897 12.2051 34.6897C12.5946 34.6897 12.9103 34.3754 12.9103 33.9876V20.5106C12.9103 19.3473 13.8573 18.4043 15.0256 18.4043H26.3077C27.476 18.4043 28.4231 19.3473 28.4231 20.5106V35.4894ZM15.1668 32.8125C15.1668 32.4328 15.4746 32.125 15.8543 32.125H25.4793C25.8589 32.125 26.1667 32.4328 26.1667 32.8125C26.1667 33.1922 25.8589 33.5 25.4793 33.5H15.8543C15.4746 33.5 15.1668 33.1922 15.1668 32.8125ZM16.3125 27.0832C15.9328 27.0832 15.625 27.391 15.625 27.7707C15.625 28.1504 15.9328 28.4582 16.3125 28.4582H25.4791C25.8588 28.4582 26.1666 28.1504 26.1666 27.7707C26.1666 27.391 25.8588 27.0832 25.4791 27.0832H16.3125ZM22.0416 22.7293C22.0416 22.3496 22.3495 22.0418 22.7291 22.0418H25.4791C25.8588 22.0418 26.1666 22.3496 26.1666 22.7293C26.1666 23.109 25.8588 23.4168 25.4791 23.4168H22.7291C22.3495 23.4168 22.0416 23.109 22.0416 22.7293ZM14.7082 22.7293C14.7082 22.3496 15.016 22.0418 15.3957 22.0418H19.979C20.3587 22.0418 20.6665 22.3496 20.6665 22.7293C20.6665 23.109 20.3587 23.4168 19.979 23.4168H15.3957C15.016 23.4168 14.7082 23.109 14.7082 22.7293Z" fill="#275B50"/>
</svg>
