<svg width="96" height="36" viewBox="0 0 96 36" fill="none" xmlns="http://www.w3.org/2000/svg">
<path d="M90.2471 24.1756C90.2471 23.413 90.5013 22.7648 91.0097 22.2309C91.5436 21.6971 92.1791 21.4301 92.9163 21.4301C93.6789 21.4301 94.3145 21.6971 94.8229 22.2309C95.3313 22.7648 95.5855 23.413 95.5855 24.1756C95.5855 24.9129 95.3313 25.5484 94.8229 26.0822C94.3145 26.5907 93.6789 26.8449 92.9163 26.8449C92.1791 26.8449 91.5436 26.5907 91.0097 26.0822C90.5013 25.5484 90.2471 24.9129 90.2471 24.1756Z" fill="#F0E8D6"/>
<path d="M73.7112 26.8449C72.2113 26.8449 70.9911 26.4381 70.0505 25.6247C69.1353 24.7858 68.6905 23.6418 68.7159 22.1928C68.7921 20.032 69.8471 18.405 71.8808 17.3119C73.6857 16.3713 76.2152 15.5324 79.4691 14.7952C79.6979 14.7443 79.8631 14.7062 79.9648 14.6808V14.452C79.9648 13.6639 79.9394 13.0538 79.8885 12.6217C79.8631 12.1641 79.7614 11.6048 79.5835 10.9439C79.4309 10.2575 79.1259 9.74906 78.6683 9.41858C78.2361 9.08811 77.6642 8.92287 76.9524 8.92287C75.8847 8.94829 75.1729 9.3169 74.817 10.0287C74.4611 10.7151 74.2831 11.6938 74.2831 12.9649V14.2995C74.2831 14.7571 73.8256 15.0494 72.9104 15.1765C71.7156 15.3545 70.8131 15.1002 70.203 14.4139C69.8471 14.0071 69.6946 13.486 69.7454 12.8505C69.8217 11.9353 70.0886 11.1599 70.5462 10.5244C71.0292 9.86346 71.6393 9.36774 72.3765 9.03726C73.1138 8.70679 73.8637 8.46529 74.6263 8.31276C75.389 8.16023 76.2024 8.08397 77.0668 8.08397C82.4815 7.95686 85.1889 9.77448 85.1889 13.5368V22.1547C85.1889 23.0444 85.4304 23.6545 85.9134 23.985C86.4218 24.3155 87.0828 24.2773 87.8962 23.8706L88.125 24.3282C87.2607 26.006 85.7227 26.8449 83.5111 26.8449C82.5959 26.8449 81.7951 26.5652 81.1088 26.006C80.4478 25.4213 80.0665 24.5951 79.9648 23.5274C78.7446 25.7391 76.66 26.8449 73.7112 26.8449ZM73.9781 21.6589C73.9781 22.5233 74.1815 23.2478 74.5882 23.8325C75.0204 24.3917 75.6178 24.6841 76.3804 24.7095C77.2193 24.7349 78.0074 24.4171 78.7446 23.7562C79.4818 23.0952 79.8885 22.3453 79.9648 21.5064V15.4816C78.3887 16.0154 77.1049 16.6891 76.1135 17.5026C74.7407 18.6211 74.0289 20.0066 73.9781 21.6589Z" fill="#F0E8D6"/>
<path d="M44.9258 3.20308V2.66923L52.0946 0H52.5522V10.2575C54.0266 8.78306 55.984 8.05855 58.4245 8.08397C59.6447 8.08397 60.687 8.27463 61.5513 8.65595C62.441 9.01185 63.0893 9.49485 63.496 10.105C63.9282 10.7151 64.2333 11.3125 64.4112 11.8972C64.5892 12.4819 64.6781 13.0793 64.6781 13.6894V22.0021C64.6781 22.9681 64.8434 23.7689 65.1738 24.4044C65.5297 25.04 65.8729 25.4594 66.2034 25.6628C66.5339 25.8662 66.8389 25.9678 67.1186 25.9678V26.6924H56.7467V25.9678C57.3314 25.9678 57.9415 25.6501 58.577 25.0145C59.2125 24.3536 59.5303 23.3113 59.5303 21.8877V13.308C59.5303 12.4183 59.1998 11.5667 58.5389 10.7532C57.9033 9.9143 56.9373 9.53298 55.6409 9.60925C54.9799 9.66009 54.3571 9.9143 53.7724 10.3719C53.1877 10.8295 52.781 11.4777 52.5522 12.3166V21.9259C52.5522 23.2986 52.8954 24.3155 53.5817 24.9764C54.2681 25.6374 54.8782 25.9678 55.4121 25.9678V26.6924H44.9258V25.9678C45.4596 25.9678 46.0062 25.6374 46.5655 24.9764C47.1247 24.3155 47.4044 23.2605 47.4044 21.8115V6.86375C47.4044 5.59268 47.2264 4.67752 46.8705 4.11825C46.54 3.53356 45.8918 3.2285 44.9258 3.20308Z" fill="#F0E8D6"/>
<path d="M23.2263 10.4863L29.5944 8.08397H30.0519L36.9538 23.2986C37.5639 22.2818 38.1359 20.998 38.6698 19.4473C39.229 17.8712 39.5087 16.4857 39.5087 15.2909C39.5087 14.5028 39.318 13.8038 38.9367 13.1937C38.5554 12.5835 38.1867 12.0243 37.8308 11.5158C37.4749 11.0074 37.297 10.4609 37.297 9.87617C37.297 8.98643 37.8054 8.38903 38.8223 8.08397C39.9408 7.72808 40.9195 7.89331 41.7584 8.57969C42.394 9.11353 42.7117 9.86346 42.7117 10.8295C42.7117 12.4819 41.9618 14.9986 40.462 18.3796C39.6993 20.0574 38.9113 21.6081 38.0978 23.0317C37.2589 24.5061 35.9751 26.6669 34.2464 29.5141C34.1193 29.7429 33.8651 30.1751 33.4838 30.8106C33.1025 31.4716 32.8101 31.9673 32.6068 32.2977C32.4034 32.6282 32.0983 33.0477 31.6916 33.5561C31.2849 34.0899 30.9035 34.484 30.5476 34.7382C30.2172 35.0178 29.785 35.2593 29.2512 35.4627C28.7427 35.6915 28.2089 35.8059 27.6496 35.8059C26.887 35.7805 26.2642 35.5263 25.7812 35.0432C25.2982 34.5857 25.0694 33.8993 25.0948 32.9841C25.0948 32.3994 25.2854 31.8783 25.6668 31.4207C26.0481 30.9886 26.5311 30.7725 27.1158 30.7725C27.5225 30.7979 27.9547 30.9758 28.4123 31.3063C28.8698 31.6368 29.213 31.8529 29.4418 31.9546C30.6366 32.3867 31.6662 31.9546 32.5305 30.6581C33.4203 29.3616 33.5474 28.0397 32.9118 26.6924L26.9251 14.1469C26.3913 12.9776 25.8828 12.1641 25.3998 11.7065C24.9168 11.2489 24.1923 11.0074 23.2263 10.982V10.4863Z" fill="#F0E8D6"/>
<path d="M0 1.83033V1.14396H12.7742V1.83033C11.5286 1.83033 10.5625 2.36418 9.87617 3.43187C9.1898 4.49957 8.84661 5.51642 8.84661 6.48243V13.1936C9.40588 12.4564 10.3083 11.2489 11.554 9.57112C12.7996 7.86789 13.7783 6.54598 14.4901 5.60539C15.3036 4.5377 15.9773 3.6988 16.5111 3.08869C17.045 2.47858 17.7441 1.91931 18.6084 1.41088C19.4727 0.877034 20.3497 0.610111 21.2395 0.610111C22.7393 0.610111 23.7308 1.20751 24.2138 2.40231C24.6205 3.44458 24.5061 4.35975 23.8706 5.14781C23.3876 5.70708 22.7648 5.99942 22.0021 6.02484C21.3412 6.02484 20.7056 5.84689 20.0955 5.491C19.4854 5.1351 18.9261 4.95715 18.4177 4.95715C17.1212 4.95715 15.3417 6.35532 13.0793 9.15166L20.7056 21.3157C22.5105 24.1375 24.29 25.6882 26.0441 25.9678V26.6924H16.5493C16.5493 25.5992 16.3332 24.7222 15.901 24.0612L9.45672 13.9563C9.38046 14.0834 9.26606 14.2486 9.11353 14.452C8.961 14.6554 8.87203 14.7698 8.84661 14.7952V21.3157C8.84661 22.2818 9.1898 23.2986 9.87617 24.3663C10.5625 25.434 11.5286 25.9678 12.7742 25.9678V26.6924H0V25.9678C1.22022 25.9678 2.10997 25.4594 2.66924 24.4426C3.25392 23.4003 3.54627 22.358 3.54627 21.3157V6.48243C3.54627 5.46558 3.25392 4.43601 2.66924 3.39374C2.10997 2.35147 1.22022 1.83033 0 1.83033Z" fill="#F0E8D6"/>
</svg>
